<?xml version="1.0" encoding="UTF-8" standalone="no"?>
<!DOCTYPE svg PUBLIC "-//W3C//DTD SVG 1.1//EN" "http://www.w3.org/Graphics/SVG/1.1/DTD/svg11.dtd">
<svg width="1000.00" height="400.00" viewBox="0.00 0.00 1000.00 400.00" xmlns="http://www.w3.org/2000/svg" xmlns:xlink="http://www.w3.org/1999/xlink">
<g stroke-linecap="round" id="MOUM_2">
<path d="M71.41,174.01 C71.42,174.01 94.16,173.90 102.61,173.92 C104.89,173.92 106.43,174.34 107.20,175.34 C107.24,175.41 154.89,282.79 155.05,283.18 C155.69,284.63 156.73,285.66 158.04,285.91 C158.70,286.03 173.30,286.03 173.97,285.91 C175.30,285.65 176.31,284.66 176.96,283.18 C177.11,282.80 225.88,175.09 226.75,174.01 C227.30,173.37 227.91,173.02 228.58,172.98 C229.32,172.96 231.60,173.78 234.71,174.01 C239.50,174.39 254.27,174.00 258.04,173.94 C260.28,173.91 261.40,174.30 261.62,175.35 C261.64,175.47 258.12,269.19 256.87,306.72 C256.79,313.13 256.77,324.59 256.73,324.96 C256.50,326.98 256.87,327.64 259.74,330.74 C260.55,331.62 260.84,332.15 260.60,332.31 C260.33,332.46 239.69,329.65 231.22,329.36 C230.00,329.30 229.65,328.45 229.65,326.38 C229.66,326.07 229.69,248.98 229.49,244.51 C229.32,241.20 227.84,237.12 226.50,236.15 C225.40,235.42 222.64,234.79 220.83,234.92 C219.32,235.05 215.55,235.91 213.73,236.49 C211.92,237.11 209.72,238.54 208.53,239.88 C206.91,241.83 200.82,260.57 198.67,267.18 C192.95,284.87 184.97,309.40 182.70,316.24 C180.97,321.33 180.13,323.36 177.97,326.71 C177.18,327.91 176.75,330.21 176.45,330.92 C175.95,332.02 174.54,332.42 172.55,332.11 C168.89,331.53 162.08,330.18 159.03,329.58 C156.98,329.11 155.62,328.32 155.18,327.20 C154.81,326.19 141.00,274.40 137.85,265.67 C136.62,262.29 133.50,254.98 133.05,254.29 C131.52,252.00 128.25,248.90 126.45,248.28 C124.17,247.54 104.88,249.07 102.09,249.53 C99.64,249.97 97.16,252.23 96.28,254.66 C94.72,259.36 97.14,324.81 97.16,325.13 C97.24,327.29 96.95,328.32 95.87,328.50 C95.53,328.54 81.71,329.18 79.72,329.22 C77.54,329.23 75.10,328.28 74.71,327.15 C74.61,326.83 75.19,317.99 75.14,315.67 C74.13,283.09 71.92,217.01 70.71,183.51 C70.51,178.25 70.28,174.58 71.41,174.01 Z" fill="none" stroke="rgb(0, 0, 0)" stroke-width="24.80" stroke-opacity="1.00" stroke-linejoin="round"/>
<path d="M734.50,161.50 C734.54,161.48 757.34,161.36 765.83,161.39 C768.12,161.39 769.76,161.88 770.51,162.97 C770.70,163.26 805.27,248.92 817.58,279.24 C818.36,281.12 819.12,283.12 819.40,283.43 C820.52,284.58 828.62,284.73 831.54,284.71 C833.25,284.68 837.03,284.60 837.50,284.50 C838.90,284.17 839.87,283.15 840.50,281.50 C840.64,281.12 889.37,164.05 889.50,163.71 C890.31,161.76 891.30,160.52 892.31,160.45 C893.06,160.43 895.36,161.27 898.50,161.50 C903.32,161.88 918.15,161.46 921.93,161.41 C924.17,161.38 925.30,161.83 925.52,163.01 C925.57,163.27 925.38,256.12 925.39,295.16 C925.42,309.12 925.54,333.20 925.50,333.50 C925.24,335.09 924.25,335.63 921.87,335.55 C921.41,335.53 898.26,335.62 897.13,335.64 C894.83,335.62 893.63,335.14 893.41,333.97 C893.38,333.80 893.56,258.23 893.57,257.89 C893.56,255.75 893.26,254.72 892.31,254.52 C892.20,254.50 880.81,254.72 878.26,254.59 C875.62,254.49 874.18,254.71 873.50,255.50 C873.32,255.73 855.18,298.58 848.04,315.30 C843.94,324.81 840.66,330.71 840.50,331.50 C840.33,332.28 839.66,335.02 838.50,335.50 C838.02,335.68 820.74,335.68 820.50,335.50 C820.47,335.48 785.72,255.72 785.50,255.50 C784.56,254.58 781.98,254.24 779.50,254.50 C776.42,254.86 768.69,254.19 767.88,254.29 C766.11,254.52 765.34,255.78 765.36,257.91 C765.37,258.25 764.55,335.37 764.50,335.50 C764.23,336.10 744.81,335.59 737.11,335.62 C734.84,335.62 733.63,335.15 733.42,334.00 C733.39,333.85 733.62,240.89 733.61,201.85 C733.58,187.88 733.46,163.81 733.50,163.50 C733.68,162.44 734.01,161.78 734.50,161.50 Z" fill="none" stroke="rgb(0, 0, 0)" stroke-width="24.80" stroke-opacity="1.00" stroke-linejoin="round"/>
<path d="M388.34,170.14 C394.76,169.22 414.24,170.67 419.61,172.32 C422.90,173.36 429.93,177.22 432.12,178.78 C433.19,179.55 439.95,185.53 441.48,187.68 C443.54,190.66 446.11,197.19 447.48,201.72 C449.22,207.90 452.31,224.09 453.24,231.73 C454.25,240.71 454.57,254.57 454.00,264.21 C452.73,282.90 449.43,300.26 447.55,305.46 C446.02,309.62 442.81,315.99 440.46,319.05 C438.83,321.14 432.57,327.23 429.80,329.33 C426.50,331.78 420.18,334.73 416.36,335.40 C409.67,336.52 393.16,335.96 386.25,335.23 C379.67,334.41 375.67,333.61 371.66,330.92 C367.69,328.18 354.36,313.61 352.80,309.66 C352.54,309.02 352.15,305.88 351.85,305.02 C351.56,304.14 349.72,300.56 348.73,295.57 C346.55,283.82 344.68,270.53 344.35,262.08 C344.06,253.98 344.89,237.94 345.34,230.46 C346.03,221.25 348.48,208.59 351.11,202.45 C352.55,199.10 356.07,192.16 357.75,188.92 C359.27,186.01 362.79,180.99 364.60,179.61 C368.34,176.84 382.41,171.05 388.34,170.14 Z" fill="none" stroke="rgb(0, 0, 0)" stroke-width="24.80" stroke-opacity="1.00" stroke-linejoin="round"/>
<path d="M391.50,159.50 C396.94,159.11 413.47,160.27 420.92,162.42 C428.90,164.77 443.36,171.01 449.50,175.50 C454.88,179.49 464.99,191.04 468.89,197.65 C472.58,203.98 477.65,218.18 479.32,226.02 C480.88,233.50 482.10,248.23 481.32,256.66 C480.67,263.49 477.04,279.82 474.73,285.54 C472.12,291.92 463.76,304.47 458.91,309.78 C454.13,314.96 444.18,323.58 437.66,327.26 C431.24,330.84 419.21,334.64 411.80,335.97 C405.74,337.04 391.99,337.24 385.28,335.93 C378.09,334.50 363.85,330.00 357.98,326.85 C351.63,323.40 341.56,315.46 337.01,310.23 C332.76,305.30 324.26,290.80 321.83,284.36 C319.40,277.81 316.88,262.16 316.74,253.88 C316.65,246.86 318.49,230.59 320.03,222.95 C321.76,214.47 326.41,203.14 330.50,196.50 C331.36,195.13 336.59,187.52 338.36,185.27 C340.84,182.15 345.34,177.73 348.92,175.20 C355.15,170.85 362.21,167.57 372.93,163.73 C381.09,160.85 389.30,159.67 391.50,159.50 Z" fill="none" stroke="rgb(255, 255, 255)" stroke-width="26.00" stroke-opacity="1.00" stroke-linejoin="round"/>
<path d="M70.50,161.50 C70.54,161.48 93.34,161.36 101.83,161.39 C104.12,161.39 105.76,161.88 106.51,162.97 C106.70,163.26 141.27,248.92 153.58,279.24 C154.36,281.12 155.12,283.12 155.40,283.43 C156.52,284.58 164.62,284.73 167.54,284.71 C169.25,284.68 173.03,284.60 173.50,284.50 C174.89,284.17 175.87,283.15 176.50,281.50 C176.64,281.13 225.37,165.58 225.50,165.25 C226.31,163.32 227.30,161.93 228.30,161.53 C228.45,161.48 250.37,161.41 257.93,161.39 C260.18,161.38 261.30,161.84 261.52,163.03 C261.57,163.30 261.38,256.12 261.39,295.16 C261.42,309.12 261.54,333.20 261.50,333.50 C261.24,335.09 260.25,335.63 257.87,335.55 C257.41,335.53 234.26,335.62 233.13,335.64 C230.83,335.62 229.63,335.14 229.41,333.97 C229.38,333.80 229.56,258.23 229.57,257.89 C229.56,255.75 229.27,254.71 228.31,254.52 C228.16,254.50 211.10,254.38 209.50,255.50 C209.34,255.62 191.08,298.58 184.01,315.30 C179.88,324.96 176.56,331.22 176.50,331.50 C176.33,332.28 175.66,335.01 174.50,335.50 C174.02,335.68 156.74,335.68 156.50,335.50 C156.47,335.48 121.72,255.72 121.50,255.50 C120.55,254.59 117.99,254.24 115.50,254.50 C112.99,254.79 110.34,254.80 107.84,254.50 C104.77,254.17 102.19,254.49 101.50,255.50 C100.79,256.65 100.56,332.76 100.57,333.12 C100.58,335.29 100.27,336.02 99.13,335.92 C95.45,335.33 71.38,335.82 70.50,335.50 C69.34,335.03 69.50,331.48 69.53,326.53 C69.58,296.09 69.61,227.96 69.59,190.26 C69.53,166.22 69.42,162.11 70.50,161.50 Z" fill="none" stroke="rgb(255, 255, 255)" stroke-width="26.00" stroke-opacity="1.00" stroke-linejoin="round"/>
<path d="M535.50,164.21 C535.54,164.19 565.40,164.03 565.50,164.21 C565.62,164.44 565.09,207.23 565.10,225.42 C565.25,244.72 565.88,288.72 566.09,291.24 C566.62,297.42 568.37,304.50 569.93,307.57 C571.66,310.84 574.80,314.65 577.80,317.00 C579.78,318.53 585.88,322.34 589.08,323.51 C592.22,324.62 598.37,326.01 601.96,326.18 C605.87,326.33 613.08,325.91 616.82,324.99 C621.22,323.86 627.61,320.86 630.16,318.37 C632.71,315.82 637.10,309.66 638.54,306.71 C639.41,304.90 641.30,298.90 641.72,296.47 C642.73,290.28 642.71,249.58 642.61,232.40 C642.43,213.03 642.26,167.85 642.25,167.46 C642.20,165.36 642.55,164.39 643.69,164.21 C644.08,164.16 671.63,163.89 672.50,164.21 C673.61,164.67 673.50,168.21 673.53,173.16 C673.66,187.43 673.99,221.30 674.18,240.90 C674.09,257.99 673.34,283.50 672.18,290.94 C671.35,296.11 669.61,301.04 667.86,304.53 C666.87,306.48 663.85,311.65 661.63,314.35 C659.46,316.95 652.71,322.52 650.25,324.08 C649.80,324.37 639.39,329.92 637.42,330.86 C633.44,332.74 627.67,334.69 623.73,335.42 C617.17,336.60 601.28,337.44 595.50,336.78 C589.73,336.09 573.92,332.18 567.85,329.18 C564.45,327.48 558.51,323.57 554.93,320.88 C551.86,318.55 546.29,312.87 543.63,309.52 C540.63,305.68 538.01,301.23 536.67,297.62 C534.50,291.46 534.39,275.42 534.32,269.04 C534.30,251.81 534.38,214.94 534.46,195.30 C534.53,169.21 534.43,164.80 535.50,164.21 Z" fill="none" stroke="rgb(255, 255, 255)" stroke-width="26.00" stroke-opacity="1.00" stroke-linejoin="round"/>
<path d="M734.50,161.50 C734.54,161.48 757.34,161.36 765.83,161.39 C768.12,161.39 769.76,161.88 770.51,162.97 C770.70,163.26 805.27,248.92 817.58,279.24 C818.36,281.12 819.12,283.12 819.40,283.43 C820.52,284.58 828.62,284.73 831.54,284.71 C833.25,284.68 837.03,284.60 837.50,284.50 C838.90,284.17 839.87,283.15 840.50,281.50 C840.64,281.12 889.37,164.05 889.50,163.71 C890.31,161.76 891.30,160.52 892.31,160.45 C893.06,160.43 895.36,161.27 898.50,161.50 C903.32,161.88 918.15,161.46 921.93,161.41 C924.17,161.38 925.30,161.83 925.52,163.01 C925.57,163.27 925.38,256.12 925.39,295.16 C925.42,309.12 925.54,333.20 925.50,333.50 C925.24,335.09 924.25,335.63 921.87,335.55 C921.41,335.53 898.26,335.62 897.13,335.64 C894.83,335.62 893.63,335.14 893.41,333.97 C893.38,333.80 893.56,258.23 893.57,257.89 C893.56,255.75 893.26,254.72 892.31,254.52 C892.20,254.50 880.81,254.72 878.26,254.59 C875.62,254.49 874.18,254.71 873.50,255.50 C873.32,255.73 855.18,298.58 848.04,315.30 C843.94,324.81 840.66,330.71 840.50,331.50 C840.33,332.28 839.66,335.02 838.50,335.50 C838.02,335.68 820.74,335.68 820.50,335.50 C820.47,335.48 785.72,255.72 785.50,255.50 C784.56,254.58 781.98,254.24 779.50,254.50 C776.42,254.86 768.69,254.19 767.88,254.29 C766.11,254.52 765.34,255.78 765.36,257.91 C765.37,258.25 764.55,335.37 764.50,335.50 C764.23,336.10 744.81,335.59 737.11,335.62 C734.84,335.62 733.63,335.15 733.42,334.00 C733.39,333.85 733.62,240.89 733.61,201.85 C733.58,187.88 733.46,163.81 733.50,163.50 C733.68,162.44 734.01,161.78 734.50,161.50 Z" fill="none" stroke="rgb(255, 255, 255)" stroke-width="26.00" stroke-opacity="1.00" stroke-linejoin="round"/>
<path d="M388.50,171.50 C390.89,171.17 399.56,170.90 403.32,171.06 C407.03,171.24 414.79,172.43 418.39,173.71 C422.02,175.04 428.47,178.80 431.65,181.17 C434.51,183.34 439.46,188.69 441.16,191.17 C443.22,194.26 446.17,201.98 447.08,205.84 C448.70,213.01 451.02,230.94 451.53,237.08 C452.15,245.13 451.71,257.33 450.82,268.20 C450.20,275.13 447.29,291.58 445.32,296.99 C443.88,300.85 440.82,306.65 438.50,309.50 C436.83,311.52 431.00,316.84 428.12,318.95 C424.87,321.30 419.28,324.10 415.90,324.92 C414.01,325.37 406.27,326.42 402.63,326.45 C398.71,326.46 391.19,325.74 387.53,324.88 C382.58,323.69 376.21,321.57 372.78,319.67 C370.26,318.24 363.70,313.07 361.23,310.47 C358.51,307.57 354.93,302.05 353.36,298.54 C351.08,293.31 347.49,278.58 346.58,270.18 C345.71,261.88 345.65,248.70 346.29,238.76 C347.16,227.50 348.48,215.90 349.70,210.69 C351.16,204.56 357.83,190.80 360.78,186.78 C363.10,183.66 368.26,179.15 371.28,177.39 C377.35,173.91 386.48,171.80 388.50,171.50 Z" fill="none" stroke="rgb(255, 255, 255)" stroke-width="26.00" stroke-opacity="1.00" stroke-linejoin="round"/>
<path d="M89.50,164.66 C89.73,192.97 90.29,260.04 90.61,298.80 C90.71,311.72 90.84,327.09 90.86,329.54" fill="none" stroke="rgb(255, 255, 255)" stroke-width="19.78" stroke-opacity="1.00" stroke-linejoin="round"/>
<path d="M96.03,179.99 C96.03,179.99 111.45,248.99 111.45,248.99" fill="none" stroke="rgb(255, 255, 255)" stroke-width="19.78" stroke-opacity="1.00" stroke-linejoin="round"/>
<path d="M95.02,168.77 C107.43,194.32 137.13,255.43 154.41,291.00 C160.35,303.22 167.96,318.89 169.64,322.34" fill="none" stroke="rgb(255, 255, 255)" stroke-width="19.78" stroke-opacity="1.00" stroke-linejoin="round"/>
<path d="M228.42,179.35 C223.41,190.51 211.06,218.03 203.71,234.41 C188.66,267.95 170.76,307.85 167.91,314.21" fill="none" stroke="rgb(255, 255, 255)" stroke-width="19.78" stroke-opacity="1.00" stroke-linejoin="round"/>
<path d="M236.13,193.86 C236.13,193.86 218.78,250.58 218.78,250.58" fill="none" stroke="rgb(255, 255, 255)" stroke-width="19.78" stroke-opacity="1.00" stroke-linejoin="round"/>
<path d="M241.31,159.58 C241.63,187.63 242.41,255.33 242.87,294.98 C243.04,309.00 243.26,328.25 243.32,333.48" fill="none" stroke="rgb(255, 255, 255)" stroke-width="19.78" stroke-opacity="1.00" stroke-linejoin="round"/>
<path d="M251.61,274.80 C251.70,275.59 251.72,276.42 251.67,278.31 C251.54,285.86 250.90,313.90 250.80,320.37 C250.75,325.16 250.45,327.15 249.37,327.65 C249.20,327.72 248.74,327.88 248.00,328.12" fill="none" stroke="rgb(255, 255, 255)" stroke-width="19.78" stroke-opacity="1.00" stroke-linejoin="round"/>
<path d="M338.95,201.42 C337.67,206.91 333.24,226.00 332.62,229.56 C331.85,234.13 331.04,243.32 331.01,247.88 C331.00,252.44 331.73,261.51 332.46,266.02 C333.81,274.04 342.05,300.04 342.77,302.30" fill="none" stroke="rgb(255, 255, 255)" stroke-width="19.78" stroke-opacity="1.00" stroke-linejoin="round"/>
<path d="M459.19,200.16 C461.00,205.45 467.27,223.85 468.17,227.28 C469.31,231.69 470.67,240.60 470.87,245.03 C471.05,249.45 470.48,258.29 469.72,262.70 C468.33,270.50 462.26,287.07 459.76,293.88 C459.32,295.08 458.50,297.30 458.13,298.31" fill="none" stroke="rgb(255, 255, 255)" stroke-width="19.78" stroke-opacity="1.00" stroke-linejoin="round"/>
<path d="M549.15,166.82 C550.44,196.84 553.25,262.32 554.77,297.77 C554.89,300.62 555.12,305.95 555.22,308.44" fill="none" stroke="rgb(255, 255, 255)" stroke-width="19.78" stroke-opacity="1.00" stroke-linejoin="round"/>
<path d="M657.68,171.57 C657.72,183.87 657.81,214.64 657.87,233.09 C657.91,243.76 657.97,263.66 658.00,272.88 C658.04,286.73 658.09,303.08 658.10,305.58" fill="none" stroke="rgb(255, 255, 255)" stroke-width="19.78" stroke-opacity="1.00" stroke-linejoin="round"/>
<path d="M753.18,169.00 C753.08,198.68 752.85,265.57 752.73,302.78 C752.70,308.82 752.68,317.35 752.67,319.85" fill="none" stroke="rgb(255, 255, 255)" stroke-width="19.78" stroke-opacity="1.00" stroke-linejoin="round"/>
<path d="M760.57,180.09 C760.57,180.09 760.57,175.84 760.57,175.84 C760.57,175.84 760.50,176.06 760.50,176.06" fill="none" stroke="rgb(255, 255, 255)" stroke-width="19.78" stroke-opacity="1.00" stroke-linejoin="round"/>
<path d="M756.50,174.94 C756.50,174.94 781.41,252.14 781.41,252.14" fill="none" stroke="rgb(255, 255, 255)" stroke-width="19.78" stroke-opacity="1.00" stroke-linejoin="round"/>
<path d="M760.92,233.85 C760.92,233.85 762.32,257.81 762.32,257.81 C762.16,256.43 761.98,253.98 761.93,252.30 C761.89,250.93 762.12,244.11 762.39,241.94" fill="none" stroke="rgb(255, 255, 255)" stroke-width="19.78" stroke-opacity="1.00" stroke-linejoin="round"/>
<path d="M781.13,226.02 C781.13,226.02 828.88,323.86 828.88,323.86" fill="none" stroke="rgb(255, 255, 255)" stroke-width="19.78" stroke-opacity="1.00" stroke-linejoin="round"/>
<path d="M909.80,166.65 C896.42,191.46 864.11,251.34 845.19,286.42 C838.49,298.82 829.31,315.85 826.81,320.47" fill="none" stroke="rgb(255, 255, 255)" stroke-width="19.78" stroke-opacity="1.00" stroke-linejoin="round"/>
<path d="M892.95,195.24 C892.47,201.44 891.27,217.18 890.53,226.73 C889.86,235.47 888.86,248.55 888.53,252.89" fill="none" stroke="rgb(255, 255, 255)" stroke-width="19.78" stroke-opacity="1.00" stroke-linejoin="round"/>
<path d="M908.28,165.56 C908.33,194.09 908.47,260.98 908.54,299.32 C908.57,311.69 908.59,325.24 908.60,326.43" fill="none" stroke="rgb(255, 255, 255)" stroke-width="19.78" stroke-opacity="1.00" stroke-linejoin="round"/>
<path d="M146.00,-233.00" fill="none" stroke="rgb(114, 32, 137)" stroke-width="49.52" stroke-opacity="1.00" stroke-linejoin="round"/>
<path d="M370.99,212.40 Q402.76,231.27 435.07,250.00 Q404.62,267.27 370.09,286.48 Q370.03,247.56 370.00,213.00 Q369.81,211.26 370.99,212.40 Z" fill="none" stroke="rgb(172, 192, 236)" stroke-width="2.00" stroke-opacity="1.00" stroke-linejoin="round"/>
<path d="M602.10,158.44 Q620.90,104.14 645.75,96.65" fill="none" stroke="rgb(172, 192, 236)" stroke-width="3.00" stroke-opacity="1.00" stroke-linejoin="round"/>
<path d="M603.00,157.01 Q634.46,125.68 663.65,115.25" fill="none" stroke="rgb(172, 192, 236)" stroke-width="3.00" stroke-opacity="1.00" stroke-linejoin="round"/>
<path d="M645.88,96.90 Q657.21,104.11 664.68,114.79" fill="none" stroke="rgb(172, 192, 236)" stroke-width="3.00" stroke-opacity="1.00" stroke-linejoin="round"/>
<path d="M625.81,149.01 Q665.08,122.68 680.86,124.65" fill="none" stroke="rgb(172, 192, 236)" stroke-width="3.00" stroke-opacity="1.00" stroke-linejoin="round"/>
<path d="M627.62,148.16 Q667.98,136.97 688.49,138.66" fill="none" stroke="rgb(172, 192, 236)" stroke-width="3.00" stroke-opacity="1.00" stroke-linejoin="round"/>
<path d="M681.22,125.19 Q688.23,131.29 688.09,138.90" fill="none" stroke="rgb(172, 192, 236)" stroke-width="3.00" stroke-opacity="1.00" stroke-linejoin="round"/>
<path d="M372.28,215.03 L433.13,249.95" fill="none" stroke="rgb(172, 192, 236)" stroke-width="5.00" stroke-opacity="1.00" stroke-linejoin="round"/>
<path d="M372.34,216.09 L372.44,282.23" fill="none" stroke="rgb(172, 192, 236)" stroke-width="5.00" stroke-opacity="1.00" stroke-linejoin="round"/>
<path d="M371.89,283.07 L431.10,250.82" fill="none" stroke="rgb(172, 192, 236)" stroke-width="5.00" stroke-opacity="1.00" stroke-linejoin="round"/>
<path d="M375.01,220.39 L375.27,278.67 L424.75,248.35 L376.84,223.52 L382.33,269.34 L412.64,246.87 L380.24,233.28 L388.34,259.07 L401.14,248.26 L387.55,244.26 L392.52,252.36" fill="none" stroke="rgb(172, 192, 236)" stroke-width="8.00" stroke-opacity="1.00" stroke-linejoin="miter"/>
<path d="M605.18,152.70 L621.43,119.08 L634.67,104.62 L645.47,98.14 L658.90,109.60 L662.57,114.86 L648.67,119.55 L622.46,136.74 L605.18,152.70 Z" fill="none" stroke="rgb(172, 192, 236)" stroke-width="3.00" stroke-opacity="1.00" stroke-linejoin="miter"/>
<path d="M610.54,145.19 L629.04,116.45 L645.57,102.37 L656.74,114.11 L616.74,135.61" fill="none" stroke="rgb(172, 192, 236)" stroke-width="7.00" stroke-opacity="1.00" stroke-linejoin="miter"/>
<path d="M646.22,111.66 L628.47,124.06" fill="none" stroke="rgb(172, 192, 236)" stroke-width="12.00" stroke-opacity="1.00" stroke-linejoin="miter"/>
<path d="M631.61,145.87 L664.36,128.93 L679.03,125.83 L684.09,131.10 L686.36,137.09 L667.36,138.02 L650.93,140.81 L631.61,145.87 Z" fill="none" stroke="rgb(172, 192, 236)" stroke-width="3.00" stroke-opacity="1.00" stroke-linejoin="miter"/>
<path d="M645.35,140.60 L677.69,129.34 L680.99,133.57 L666.74,133.78" fill="none" stroke="rgb(172, 192, 236)" stroke-width="7.00" stroke-opacity="1.00" stroke-linejoin="miter"/>
</g>
</svg>
